@startuml
title 基于GitHub的实验管理平台--类图
class users {
    <b>user_id</b> （用户ID）
    name （用户真实姓名）
    github_username （用户GitHub账号）
    password （用户密码）
    disable （用户是否禁用）
    update_date （用户GitHub账号修改日期）
}


class teachers{
    <b>teacher_id</b> （老师工号）
    department （老师所属部门）
    teacher_name（老师姓名）
    teacher_term（老师教授的学期）
    teacher_discipline（老师教授的课程）
}
class students{
    <b>student_id</b> （学号）
    class （班级）
    result_sum（成绩汇总）
    web_sum （网站正确与否汇总）
    student_term（学生选课的学期）
    student_discipline（学生选的课程）
}

users <|- students
users <|-- teachers

class grades {
    <b>student_id</b> （学号）
    <b>experi_id</b> （实验编号）
    result （最终分数）
    comment（实验评语）
    update_date （评改日期）
    grade_present（每个实验占总成绩的百分比）
}

class tests {
    <b>test_id</b> （实验编号）
    test_title （实验名称）
    test_term（学期）
}

class terms{
    <b>term_id</b>（学期编号）
    term_name（学期名称）
}

class subjects{
    <b>subjects_id</b>(课程编号)
    subjects_name(课程名）
}

class course{
    <b>select_id</b>（选课ID）
    <b>discipline_id</b>（课程编号）
    course_time（课程时长）
    course_name（课程名称）

}


students "1" -- "n"  grades
students "1" -- "n"  terms
teachers "1" -- "n"  terms
tests "1" -- "n"  grades
teachers "1" -- "n"  course
students "1" -- "n"  course
terms "1" -- "n"  subjects
subjects "1" -- "n" tests


@enduml